<mxfile host="app.diagrams.net" modified="2023-12-25T18:41:24.863Z" agent="Mozilla/5.0 (X11; Linux x86_64; rv:121.0) Gecko/20100101 Firefox/121.0" etag="V0hUvH9ntF2HsgofFRSR" version="22.1.11" type="github">
  <diagram name="Page-1" id="5QK0WoXZhOht4pZtpmj_">
    <mxGraphModel dx="960" dy="525" grid="0" gridSize="10" guides="1" tooltips="1" connect="1" arrows="1" fold="1" page="1" pageScale="1" pageWidth="850" pageHeight="1100" math="0" shadow="0">
      <root>
        <mxCell id="0" />
        <mxCell id="1" parent="0" />
        <mxCell id="r6IxHAk2lPqvu3a0toJz-1" value="" style="verticalAlign=top;align=left;spacingTop=8;spacingLeft=2;spacingRight=12;shape=cube;size=10;direction=south;fontStyle=4;html=1;whiteSpace=wrap;" vertex="1" parent="1">
          <mxGeometry x="520" y="240" width="200" height="280" as="geometry" />
        </mxCell>
        <mxCell id="r6IxHAk2lPqvu3a0toJz-24" value="" style="edgeStyle=orthogonalEdgeStyle;rounded=0;orthogonalLoop=1;jettySize=auto;html=1;entryX=0;entryY=0;entryDx=280;entryDy=105;entryPerimeter=0;endArrow=none;endFill=0;" edge="1" parent="1" source="r6IxHAk2lPqvu3a0toJz-2" target="r6IxHAk2lPqvu3a0toJz-1">
          <mxGeometry relative="1" as="geometry" />
        </mxCell>
        <mxCell id="r6IxHAk2lPqvu3a0toJz-2" value="" style="verticalAlign=top;align=left;spacingTop=8;spacingLeft=2;spacingRight=12;shape=cube;size=10;direction=south;fontStyle=4;html=1;whiteSpace=wrap;" vertex="1" parent="1">
          <mxGeometry x="520" y="570" width="190" height="70" as="geometry" />
        </mxCell>
        <mxCell id="r6IxHAk2lPqvu3a0toJz-3" value="" style="verticalAlign=top;align=left;spacingTop=8;spacingLeft=2;spacingRight=12;shape=cube;size=10;direction=south;fontStyle=4;html=1;whiteSpace=wrap;" vertex="1" parent="1">
          <mxGeometry x="220" y="325" width="180" height="180" as="geometry" />
        </mxCell>
        <mxCell id="r6IxHAk2lPqvu3a0toJz-4" value="&amp;lt;&amp;lt;device&amp;gt;&amp;gt;" style="text;html=1;strokeColor=none;fillColor=none;align=center;verticalAlign=middle;whiteSpace=wrap;rounded=0;" vertex="1" parent="1">
          <mxGeometry x="580" y="250" width="60" height="30" as="geometry" />
        </mxCell>
        <mxCell id="r6IxHAk2lPqvu3a0toJz-5" value="&amp;lt;&amp;lt;device&amp;gt;&amp;gt;" style="text;html=1;strokeColor=none;fillColor=none;align=center;verticalAlign=middle;whiteSpace=wrap;rounded=0;" vertex="1" parent="1">
          <mxGeometry x="270" y="350" width="60" height="30" as="geometry" />
        </mxCell>
        <mxCell id="r6IxHAk2lPqvu3a0toJz-6" value="&amp;lt;&amp;lt;device&amp;gt;&amp;gt;" style="text;html=1;strokeColor=none;fillColor=none;align=center;verticalAlign=middle;whiteSpace=wrap;rounded=0;" vertex="1" parent="1">
          <mxGeometry x="585" y="580" width="60" height="30" as="geometry" />
        </mxCell>
        <mxCell id="r6IxHAk2lPqvu3a0toJz-7" value="Сервер БД" style="text;html=1;strokeColor=none;fillColor=none;align=center;verticalAlign=middle;whiteSpace=wrap;rounded=0;" vertex="1" parent="1">
          <mxGeometry x="260" y="375" width="80" height="30" as="geometry" />
        </mxCell>
        <mxCell id="r6IxHAk2lPqvu3a0toJz-8" value="&lt;div&gt;PostgreSQL&lt;/div&gt;&lt;div&gt;База данных&lt;br&gt;&lt;/div&gt;" style="rounded=0;whiteSpace=wrap;html=1;" vertex="1" parent="1">
          <mxGeometry x="245" y="405" width="110" height="95" as="geometry" />
        </mxCell>
        <mxCell id="r6IxHAk2lPqvu3a0toJz-9" value="&amp;lt;&amp;lt;Артефакт&amp;gt;&amp;gt;" style="text;html=1;strokeColor=none;fillColor=none;align=center;verticalAlign=middle;whiteSpace=wrap;rounded=0;" vertex="1" parent="1">
          <mxGeometry x="270" y="410" width="60" height="30" as="geometry" />
        </mxCell>
        <mxCell id="r6IxHAk2lPqvu3a0toJz-10" value="Сервер приложения" style="text;html=1;strokeColor=none;fillColor=none;align=center;verticalAlign=middle;whiteSpace=wrap;rounded=0;" vertex="1" parent="1">
          <mxGeometry x="545" y="270" width="130" height="30" as="geometry" />
        </mxCell>
        <mxCell id="r6IxHAk2lPqvu3a0toJz-11" value="" style="rounded=0;whiteSpace=wrap;html=1;" vertex="1" parent="1">
          <mxGeometry x="555" y="300" width="115" height="60" as="geometry" />
        </mxCell>
        <mxCell id="r6IxHAk2lPqvu3a0toJz-12" value="&amp;lt;&amp;lt;Артефакт&amp;gt;&amp;gt;" style="text;html=1;strokeColor=none;fillColor=none;align=center;verticalAlign=middle;whiteSpace=wrap;rounded=0;" vertex="1" parent="1">
          <mxGeometry x="580" y="300" width="60" height="30" as="geometry" />
        </mxCell>
        <mxCell id="r6IxHAk2lPqvu3a0toJz-13" value="API-сервер" style="text;html=1;strokeColor=none;fillColor=none;align=center;verticalAlign=middle;whiteSpace=wrap;rounded=0;" vertex="1" parent="1">
          <mxGeometry x="575" y="330" width="70" height="30" as="geometry" />
        </mxCell>
        <mxCell id="r6IxHAk2lPqvu3a0toJz-14" value="" style="rounded=0;whiteSpace=wrap;html=1;" vertex="1" parent="1">
          <mxGeometry x="555" y="370" width="115" height="70" as="geometry" />
        </mxCell>
        <mxCell id="r6IxHAk2lPqvu3a0toJz-15" value="&amp;lt;&amp;lt;Артефакт&amp;gt;&amp;gt;" style="text;html=1;strokeColor=none;fillColor=none;align=center;verticalAlign=middle;whiteSpace=wrap;rounded=0;" vertex="1" parent="1">
          <mxGeometry x="580" y="370" width="60" height="30" as="geometry" />
        </mxCell>
        <mxCell id="r6IxHAk2lPqvu3a0toJz-16" value="&lt;div&gt;Обратный прокси&lt;/div&gt;&lt;div&gt;NGINX&lt;br&gt;&lt;/div&gt;" style="text;html=1;strokeColor=none;fillColor=none;align=center;verticalAlign=middle;whiteSpace=wrap;rounded=0;" vertex="1" parent="1">
          <mxGeometry x="575" y="400" width="70" height="30" as="geometry" />
        </mxCell>
        <mxCell id="r6IxHAk2lPqvu3a0toJz-17" value="Устройство пользователя" style="text;html=1;strokeColor=none;fillColor=none;align=center;verticalAlign=middle;whiteSpace=wrap;rounded=0;" vertex="1" parent="1">
          <mxGeometry x="545" y="610" width="145" height="30" as="geometry" />
        </mxCell>
        <mxCell id="r6IxHAk2lPqvu3a0toJz-18" value="" style="rounded=0;whiteSpace=wrap;html=1;" vertex="1" parent="1">
          <mxGeometry x="555" y="450" width="115" height="60" as="geometry" />
        </mxCell>
        <mxCell id="r6IxHAk2lPqvu3a0toJz-19" value="&amp;lt;&amp;lt;Артефакт&amp;gt;&amp;gt;" style="text;html=1;strokeColor=none;fillColor=none;align=center;verticalAlign=middle;whiteSpace=wrap;rounded=0;" vertex="1" parent="1">
          <mxGeometry x="582.5" y="450" width="60" height="30" as="geometry" />
        </mxCell>
        <mxCell id="r6IxHAk2lPqvu3a0toJz-20" value="Веб-сайт" style="text;html=1;strokeColor=none;fillColor=none;align=center;verticalAlign=middle;whiteSpace=wrap;rounded=0;" vertex="1" parent="1">
          <mxGeometry x="580" y="480" width="70" height="30" as="geometry" />
        </mxCell>
        <mxCell id="r6IxHAk2lPqvu3a0toJz-25" style="rounded=0;orthogonalLoop=1;jettySize=auto;html=1;entryX=0.625;entryY=1;entryDx=0;entryDy=0;entryPerimeter=0;endArrow=none;endFill=0;" edge="1" parent="1" source="r6IxHAk2lPqvu3a0toJz-3" target="r6IxHAk2lPqvu3a0toJz-1">
          <mxGeometry relative="1" as="geometry" />
        </mxCell>
      </root>
    </mxGraphModel>
  </diagram>
</mxfile>
